<svg width="64" height="24" viewBox="0 0 64 24" fill="none" xmlns="http://www.w3.org/2000/svg">
<path d="M10.3835 9.25568C10.322 9.00473 10.2249 8.78456 10.0923 8.59517C9.95975 8.40104 9.79403 8.23769 9.59517 8.10511C9.40104 7.9678 9.17377 7.866 8.91335 7.79972C8.65767 7.72869 8.37595 7.69318 8.06818 7.69318C7.4053 7.69318 6.83949 7.8518 6.37074 8.16903C5.90672 8.48627 5.55161 8.94318 5.3054 9.53977C5.06392 10.1364 4.94318 10.8561 4.94318 11.6989C4.94318 12.5511 5.05919 13.2803 5.29119 13.8864C5.5232 14.4924 5.86884 14.9564 6.32812 15.2784C6.78741 15.6004 7.35795 15.7614 8.03977 15.7614C8.6411 15.7614 9.14063 15.6738 9.53835 15.4986C9.94081 15.3234 10.2415 15.0748 10.4403 14.7528C10.6392 14.4309 10.7386 14.0521 10.7386 13.6165L11.4205 13.6875H8.09659V10.875H14.5455V12.892C14.5455 14.2178 14.2637 15.3518 13.7003 16.294C13.1416 17.2315 12.3698 17.9512 11.3849 18.4531C10.4048 18.9503 9.2803 19.1989 8.01136 19.1989C6.59564 19.1989 5.35275 18.8982 4.28267 18.2969C3.21259 17.6955 2.37689 16.8385 1.77557 15.7259C1.17898 14.6132 0.880682 13.2898 0.880682 11.7557C0.880682 10.553 1.06297 9.48769 1.42756 8.55966C1.79688 7.63163 2.30824 6.84801 2.96165 6.20881C3.61506 5.56487 4.37027 5.07955 5.22727 4.75284C6.08428 4.4214 7.00284 4.25568 7.98295 4.25568C8.8447 4.25568 9.64489 4.37879 10.3835 4.625C11.1269 4.86648 11.7827 5.21212 12.3509 5.66193C12.9238 6.10701 13.3854 6.63494 13.7358 7.24574C14.0862 7.85653 14.2992 8.52651 14.375 9.25568H10.3835ZM19.7159 19H15.4545L20.2557 4.45455H25.6534L30.4545 19H26.1932L23.0114 8.46023H22.8977L19.7159 19ZM18.9205 13.2614H26.9318V16.2159H18.9205V13.2614ZM51.7773 19V4.45455H62.2603V7.63636H55.7262V10.1364H61.7205V13.3182H55.7262V15.8182H62.2319V19H51.7773Z" fill="white"/>
<rect x="33" y="4" width="6.66667" height="6.66667" rx="1" fill="#4785FF"/>
<rect x="41.3333" y="4" width="6.66667" height="6.66667" rx="1" fill="#4785FF"/>
<rect x="33" y="12.3334" width="6.66667" height="6.66667" rx="1" fill="#4785FF"/>
<rect x="41.3333" y="12.3334" width="6.66667" height="6.66667" rx="1" fill="#4785FF"/>
</svg>
